<svg width="97" height="88" viewBox="0 0 97 88" fill="none" xmlns="http://www.w3.org/2000/svg">
<g clip-path="url(#clip0)">
<path d="M9.04895 70.4793L7.3571 69.5461C6.94696 70.7224 6.08822 71.1827 5.19102 71.1827C3.9734 71.1827 2.6917 70.326 2.6917 68.4593C2.6917 66.5925 3.88356 65.8126 5.0244 65.8126C6.03695 65.8126 6.98541 66.4392 7.0495 67.7688H8.89515V63.7668H7.01104L7.08807 65.2245C6.71625 64.2272 5.51145 63.7286 4.47327 63.7286C2.42254 63.7286 0.00012207 65.1734 0.00012207 68.4849C0.00012207 71.3489 1.82014 73.3308 5.11424 73.3308C7.25469 73.3308 8.76698 72.0265 9.04907 70.4794L9.04895 70.4793ZM15.3293 68.9834H13.663C13.9065 68.4336 14.2654 67.2701 14.4704 66.3879C14.6627 67.2829 15.0473 68.4336 15.3292 68.9834H15.3293ZM19.905 73.0877V71.2082H18.7772L15.6627 63.9971H13.4197L10.4461 71.2082H9.3695V73.0877H14.2528V71.2082H12.9326L13.1248 70.5434H15.8677L16.0984 71.2082H14.7911V73.0877H19.9051H19.905ZM34.2089 73.0877V71.2082H32.5299V65.8765H34.2089V63.9971H29.223C28.9282 64.9176 27.7234 68.242 27.3132 70.0703C26.9031 68.2676 25.7753 64.8793 25.5062 63.9971H20.1229V65.8765H21.7892V71.2082H20.1229V73.0877H25.1729V71.2082H23.9167V67.7817C23.9167 67.3596 23.8784 66.1961 23.8526 65.787C23.9425 66.2089 24.1731 67.2318 24.3397 67.756L26.0315 73.0877H28.0952L29.7614 67.7433C30.0178 66.925 30.1973 66.2474 30.2741 65.7871C30.2485 66.2346 30.1459 67.2063 30.1459 67.8585V71.2083H28.9155V73.0878H34.2089V73.0877ZM40.3867 68.9834H38.7204C38.9639 68.4336 39.3228 67.2701 39.5279 66.3879C39.7201 67.2829 40.1048 68.4336 40.3866 68.9834H40.3867ZM44.9624 73.0877V71.2082H43.8346L40.7201 63.9971H38.4771L35.5036 71.2082H34.4269V73.0877H39.3102V71.2082H37.9901L38.1822 70.5434H40.9252L41.1559 71.2082H39.8485V73.0877H44.9625H44.9624ZM52.076 67.0272C52.076 67.6409 51.6787 68.2036 50.6533 68.2036H49.3203V65.8765H50.7047C51.7173 65.8765 52.0761 66.3368 52.0761 67.0272H52.076ZM54.742 66.925C54.742 65.3524 53.5628 63.9971 50.8968 63.9971H45.1803V65.8765H46.8338V71.2082H45.1803V73.0877H51.1019V71.2082H49.3202V69.8657H50.8456C53.4859 69.8657 54.742 68.5234 54.742 66.925ZM64.201 70.4794L62.5092 69.5462C62.0991 70.7225 61.2403 71.1828 60.3431 71.1828C59.1255 71.1828 57.8438 70.3261 57.8438 68.4594C57.8438 66.5926 59.0357 65.8127 60.1765 65.8127C61.189 65.8127 62.1375 66.4393 62.2016 67.7689H64.0472V63.767H62.1631L62.2402 65.2247C61.8684 64.2274 60.6636 63.7287 59.6254 63.7287C57.5746 63.7287 55.1522 65.1735 55.1522 68.485C55.1522 71.349 56.9722 73.3309 60.2663 73.3309C62.4068 73.3309 63.9191 72.0266 64.2012 70.4796L64.201 70.4794ZM75.2237 65.8127C75.2237 64.5342 74.1214 63.7542 73.0319 63.7542C71.1221 63.7542 70.0455 64.956 70.0455 66.2857C70.0455 67.0785 70.0455 67.9864 69.315 67.9864H68.8792V65.8766H69.7124V63.9972H64.7392V65.8766H66.3928V71.2083H64.7392V73.0878H70.3276V71.2083H68.8792V69.4951H69.8276C70.6737 69.4951 71.0069 69.917 71.0069 70.454C71.0069 70.9782 70.9171 71.3234 70.9171 71.8221C70.9171 72.8706 71.7117 73.3309 72.7371 73.3309C74.0188 73.3309 75.1339 72.7427 75.1339 71.2723V70.1983H73.9675V71.2851C73.9675 71.7071 73.6984 71.8093 73.5317 71.8093C73.3907 71.8093 73.2882 71.7326 73.2882 71.6047C73.2882 71.2851 73.4036 70.9143 73.4036 70.2366C73.4036 69.3033 72.4679 68.4594 70.8402 68.4594V68.3316C71.9554 67.9991 72.1731 67.5515 72.1731 66.9763C72.1731 66.6311 72.0962 66.2347 72.0962 65.7872C72.0962 65.3781 72.3269 64.9562 72.7883 64.9562C72.8908 64.9562 73.0062 64.9817 73.1216 65.0201C73.1216 65.0201 72.4806 65.4164 72.4806 66.1451C72.4806 66.8484 73.0447 67.3342 73.7881 67.3342C74.5571 67.3342 75.2236 66.7716 75.2236 65.8126L75.2237 65.8127ZM87.3488 73.0878V71.2083H85.6697V65.8766H87.3488V63.9972H82.9268L79.7994 69.9681V65.8766H81.4143V63.9972H75.6595V65.8766H77.313V71.2083H75.6595V73.0878H80.0557L83.1831 67.1169V71.2083H81.5938V73.0878H87.3486H87.3488ZM97 73.0878V69.252H95.5132V69.8786C95.5132 70.7097 95.2698 71.2082 94.129 71.2082H91.9243V69.3543H94.7056V67.692H91.9243V65.8765H94.129C95.2697 65.8765 95.5132 66.3752 95.5132 67.2062V67.7817H97V63.9971H87.7844V65.8765H89.4379V71.2082H87.7844V73.0877H97V73.0878Z" fill="#FEFEFE"/>
<path d="M26.4096 85.1487L24.7178 84.2155C24.3076 85.3917 23.4489 85.852 22.5517 85.852C21.3341 85.852 20.0524 84.9954 20.0524 83.1287C20.0524 81.2619 21.2442 80.4819 22.3851 80.4819C23.3976 80.4819 24.3461 81.1085 24.4102 82.4381H26.2558V78.4362H24.3717L24.4487 79.8939C24.0769 78.8966 22.8721 78.398 21.8339 78.398C19.7832 78.398 17.3608 79.8428 17.3608 83.1543C17.3608 86.0182 19.1808 88.0001 22.4749 88.0001C24.6153 88.0001 26.1276 86.6959 26.4097 85.1488L26.4096 85.1487ZM37.24 83.1158V78.6665H27.1145V83.1158H28.832V81.8756C28.832 81.0445 29.0756 80.5459 30.2164 80.5459H30.9213V85.8776H29.2679V87.7571H35.087V85.8776H33.408V80.5459H34.1256C35.2663 80.5459 35.51 81.0446 35.51 81.8756V83.1158H37.2403H37.24ZM48.5576 80.5459V78.6665H43.8922V80.5459H44.9432L43.764 83.4995C43.764 82.694 43.2898 81.8501 42.3541 80.5459H43.4564V78.6665H38.0092V80.5459H39.0089C42.1875 83.947 42.3029 84.5222 42.3029 85.2511C42.3029 85.8009 41.8799 86.7342 40.7136 86.7342C40.1367 86.7342 39.6369 86.4785 39.3806 85.9671C39.5985 86.0693 39.8933 86.1717 40.1752 86.1717C41.0083 86.1717 41.6364 85.5578 41.6364 84.778C41.6364 84.0237 40.97 83.346 40.1368 83.346C38.8294 83.346 38.2655 84.4456 38.2655 85.379C38.2655 87.1306 39.5088 88 41.1878 88C42.8027 88 43.9178 87.1688 44.9816 85.1998L47.4938 80.5459H48.5576ZM59.0547 87.7571V85.8776H57.3758V80.5459H59.0547V78.6665H49.3266V80.5459H51.0056V83.7552C51.0056 86.1077 50.2751 86.8749 49.4548 86.8749C49.2497 86.8749 48.8524 86.8109 48.5704 86.4913C48.6217 86.5041 48.8138 86.5424 48.9036 86.5424C49.3649 86.5424 50.2623 86.1077 50.2623 85.0082C50.2623 84.2027 49.6086 83.5122 48.5959 83.5122C47.5577 83.5122 46.8528 84.3689 46.8528 85.4685C46.8528 86.9388 47.9039 88.0001 49.4676 88.0001C52.2361 88.0001 53.5179 86.0055 53.5179 80.546H54.8893V85.8777H53.2999V87.7572H59.0547V87.7571ZM69.0523 85.021C69.0523 83.3587 67.8987 82.2847 65.8992 82.2847H63.9894V80.5459H65.4762V78.6665H60.0032V80.5459H61.49V85.8776H60.0032V87.7571H65.899C67.8986 87.7571 69.0522 86.6831 69.0522 85.021H69.0523ZM66.617 84.9187C66.617 85.4429 66.258 85.8776 65.2968 85.8776H63.9766V83.9981H65.3224C66.2709 83.9981 66.6169 84.4201 66.6169 84.9187H66.617ZM79.6393 85.8776H77.9859V80.5459H79.6393V78.6665H73.6794C71.4492 78.6665 70.2828 79.83 70.2828 81.0958C70.2828 82.272 71.1031 83.2054 72.7693 83.2564V83.3843C71.5261 83.3843 70.9748 83.9724 70.9748 84.9059C70.9748 85.5835 71.0902 85.9543 71.0902 86.2739C71.0902 86.4018 70.9878 86.4785 70.8468 86.4785C70.68 86.4785 70.4109 86.3764 70.4109 85.9543V84.8675H69.2445V85.9415C69.2445 87.4119 70.3468 88.0001 71.6285 88.0001C72.6539 88.0001 73.4613 87.5399 73.4613 86.4913C73.4613 85.9927 73.3716 85.6475 73.3716 85.1232C73.3716 84.5862 73.7049 84.1643 74.5508 84.1643H75.4993V85.8776H74.0509V87.7571H79.6392V85.8776H79.6393ZM72.7693 81.5944C72.7693 81.0574 73.1795 80.5459 74.128 80.5459H75.4994V82.6556H74.4612C73.0385 82.6556 72.7693 82.1442 72.7693 81.5944Z" fill="#FEFEFE"/>
<path d="M43.0811 46.3589L45.3871 47.9158L38.3174 53.3636L43.0811 46.3589ZM43.6184 50.4899H45.5908L45.7025 50.5456L36.5049 56.0283L37.0138 55.2804L43.6184 50.4899ZM50.814 50.4899H53.0911L59.8585 55.1803L60.3996 55.9238L50.718 50.5397L50.8141 50.4899H50.814ZM52.1115 49.4691H48.9278L50.5557 48.3222L52.1115 49.4691ZM47.6873 49.4691H44.5554L46.0183 48.342L47.6873 49.4691ZM53.4064 46.3135L58.4725 53.2753L51.1683 47.8906L53.4064 46.3135ZM63.8388 57.9889L54.0541 44.5421C53.8958 44.3248 53.3764 44.2061 52.893 44.2775C52.4102 44.3486 52.1471 44.5826 52.3051 44.8L53.0295 45.7954C52.7817 45.8449 53.0779 43.8088 48.3028 47.1626C43.3873 43.8539 43.6859 45.885 43.4356 45.8375L44.1169 44.8359C44.2656 44.6171 43.9923 44.3857 43.5064 44.3186C43.0199 44.2514 42.5058 44.3748 42.3572 44.5935L33.1556 58.1236C33.0069 58.3423 33.2801 58.5738 33.7663 58.6407C34.2486 58.7074 34.7656 58.5861 34.9154 58.3661L35.7669 57.1136L48.3357 50.5912L61.1842 57.0023L62.09 58.247C62.2491 58.4658 62.7718 58.5825 63.2508 58.5115C63.7337 58.4402 63.9968 58.2065 63.8385 57.989L63.8388 57.9889Z" fill="#FEFEFE"/>
<path d="M69.4847 6.24664C70.6572 1.15566 68.4692 -1.29726 63.495 0.687412C50.1542 6.01107 46.0351 5.68697 33.505 0.687412C28.5309 -1.29714 26.3427 1.15554 27.5155 6.24664C28.4008 10.0913 31.4735 16.4302 31.8904 18.0924C32.3071 19.7553 33.453 25.1068 32.0466 27.2891C32.0466 27.2891 28.7469 25.2315 28.1663 27.4642L28.1162 27.4793C28.1251 27.5078 28.1338 27.5366 28.1425 27.5651C28.1168 27.6865 28.0985 27.8192 28.0884 27.9645C27.8992 30.7018 29.7355 44.5817 43.8698 47.1041L44.2646 47.1707C45.2902 47.3357 46.3781 47.4425 47.5337 47.4814L49.7995 47.4662C66.9825 46.6873 69.1151 30.9036 68.912 27.9644C68.9015 27.8191 68.8833 27.6864 68.8576 27.5649C68.8665 27.5365 68.8754 27.5076 68.8839 27.4792L68.8342 27.4641C68.2534 25.2314 64.9536 27.289 64.9536 27.289C63.5475 25.1067 64.6932 19.7552 65.1097 18.0923C65.5262 16.4301 68.5996 10.0913 69.4849 6.24652L69.4847 6.24664Z" fill="#A85748"/>
<path d="M69.4847 6.24664C70.6572 1.15566 68.4692 -1.29726 63.495 0.687412C50.1542 6.01107 46.0351 5.68697 33.505 0.687412C28.5309 -1.29714 26.3427 1.15554 27.5155 6.24664C28.4008 10.0913 31.4735 16.4302 31.8904 18.0924C32.3071 19.7553 33.453 25.1068 32.0466 27.2891C32.0466 27.2891 28.7469 25.2316 28.1663 27.4642L28.1162 27.4793C28.1251 27.5078 28.1338 27.5366 28.1425 27.5651C28.1168 27.6865 28.0985 27.8192 28.0884 27.9645C27.9936 29.3351 28.4069 33.4994 30.6175 37.6327C29.567 34.5463 29.352 31.8253 29.4203 30.768C29.4296 30.6226 29.4469 30.49 29.4709 30.3685C29.4626 30.34 29.4545 30.3112 29.4463 30.2827L29.4931 30.2677C29.9324 28.4611 32.9607 28.8711 34.3497 29.4635C40.3808 32.038 39.0244 39.3595 48.4535 39.3595C57.8826 39.3595 56.4563 32.0876 62.6034 29.4635C63.9503 28.8886 67.0734 28.4832 67.5074 30.2677L67.5538 30.2827C67.5459 30.3112 67.5376 30.34 67.5294 30.3685C67.5534 30.49 67.5704 30.6226 67.5802 30.768C67.6483 31.8246 67.4342 34.5418 66.3857 37.625C68.5931 33.4944 69.0067 29.3344 68.912 27.9645C68.9015 27.8192 68.8833 27.6865 68.8576 27.5651C68.8665 27.5366 68.8754 27.5078 68.8839 27.4793L68.8342 27.4642C68.2534 25.2316 64.9536 27.2891 64.9536 27.2891C63.5475 25.1068 64.6932 19.7553 65.1097 18.0924C65.5262 16.4302 68.5996 10.0914 69.4849 6.24664H69.4847ZM33.7185 27.8304C33.917 25.3441 33.2608 22.1201 32.9741 20.8958C32.5844 19.2335 29.7122 12.8947 28.8847 9.04996C27.7883 3.95885 29.8338 1.50618 34.4834 3.49073C40.4675 6.04509 43.2412 6.85312 48.4771 6.85312C53.713 6.85312 56.4175 6.09442 62.5166 3.49073C67.1663 1.50606 69.2115 3.95897 68.1156 9.04996C67.2879 12.8946 64.4149 19.2335 64.0258 20.8958C63.7399 22.117 63.0862 25.3282 63.28 27.812C57.1125 30.2586 55.88 40.7348 48.5583 40.9185C39.857 41.1368 40.1922 30.4 33.7185 27.8304Z" fill="#FEFEFE"/>
<path d="M61.7946 10.2612C61.8119 13.0285 55.8378 19.8728 58.3846 28.1419C56.6729 18.6362 66.5549 7.95269 62.7267 7.27493C61.0186 6.85096 56.4563 13.1863 44.493 10.0436C54.8352 14.5934 62.4285 7.81241 61.7946 10.2612Z" fill="#FEFEFE"/>
</g>
<defs>
<clipPath id="clip0">
<rect width="97" height="88" fill="white"/>
</clipPath>
</defs>
</svg>
